<?xml version="1.0" encoding="UTF-8"?>
<svg version="1.1" xmlns="http://www.w3.org/2000/svg" width="735" height="919">
<path d="M0 0 C0.66 0 1.32 0 2 0 C2.26627197 0.63389648 2.53254395 1.26779297 2.80688477 1.92089844 C4.05036045 4.86756386 5.30540822 7.80911791 6.5625 10.75 C7.23998291 12.34908203 7.23998291 12.34908203 7.93115234 13.98046875 C10.27793666 19.41775422 12.64291009 24.22374526 16.125 29 C21.40862975 37.26572523 19.5438204 48.59609032 19 58 C19.886875 57.525625 20.77375 57.05125 21.6875 56.5625 C26.85211338 54.12636161 31.25781122 53.84333436 36.9375 53.8125 C38.12214844 53.79832031 39.30679688 53.78414062 40.52734375 53.76953125 C44.01767466 54.00117301 46.7501094 54.74469874 50 56 C50 56.66 50 57.32 50 58 C50.928125 58.37125 50.928125 58.37125 51.875 58.75 C54.35068687 60.20628639 54.95125002 61.37812506 56 64 C56.66 64 57.32 64 58 64 C62 70.75 62 70.75 62 73 C62.66 73 63.32 73 64 73 C64 73.66 64 74.32 64 75 C64.99 75.33 65.98 75.66 67 76 C67 76.66 67 77.32 67 78 C68.00160156 77.7834375 69.00320313 77.566875 70.03515625 77.34375 C71.37752737 77.06213368 72.71997971 76.78090434 74.0625 76.5 C74.71927734 76.35691406 75.37605469 76.21382813 76.05273438 76.06640625 C81.48136439 74.94324142 86.63303578 74.21101193 92 76 C92.66 76.99 93.32 77.98 94 79 C94.61875 79.12375 95.2375 79.2475 95.875 79.375 C99.15552178 80.33985935 100.22765353 82.15158603 102 85 C102.40246324 88.86364713 101.83769112 92.23038996 101 96 C101 96.66 101 97.32 101 98 C101.66 98 102.32 98 103 98 C104.50626117 101.12202006 106.00393243 104.24808399 107.5 107.375 C108.14388672 108.70917969 108.14388672 108.70917969 108.80078125 110.0703125 C109.40986328 111.34648437 109.40986328 111.34648437 110.03125 112.6484375 C110.40830078 113.43395996 110.78535156 114.21948242 111.17382812 115.02880859 C112 117 112 117 112 119 C112.66 119 113.32 119 114 119 C114.99 121.97 115.98 124.94 117 128 C117.66 128 118.32 128 119 128 C119.31453125 128.70125 119.6290625 129.4025 119.953125 130.125 C121.99367218 134.64862266 124.04420342 139.14785827 126.3125 143.5625 C128 147 128 147 128 149 C128.66 149 129.32 149 130 149 C130.67354499 150.43429001 131.33859701 151.87257057 132 153.3125 C132.37125 154.11300781 132.7425 154.91351563 133.125 155.73828125 C134 158 134 158 134 161 C134.66 161 135.32 161 136 161 C136.72916667 162.45833333 137.45833333 163.91666667 138.1875 165.375 C138.63996094 166.27863281 139.09242188 167.18226563 139.55859375 168.11328125 C140.51329142 170.02526385 141.46387181 171.9393083 142.41015625 173.85546875 C143.07337891 175.19544922 143.07337891 175.19544922 143.75 176.5625 C144.36101562 177.80193359 144.36101562 177.80193359 144.984375 179.06640625 C145.85220543 180.95127032 145.85220543 180.95127032 147 182 C147.07258946 184.18639453 147.08373783 186.37500389 147.0625 188.5625 C147.05347656 189.76003906 147.04445313 190.95757812 147.03515625 192.19140625 C147.02355469 193.11824219 147.01195312 194.04507813 147 195 C146.34 195 145.68 195 145 195 C144.73832031 195.59554687 144.47664063 196.19109375 144.20703125 196.8046875 C141.80250693 201.17796474 137.65629115 204.17185442 133.25 206.375 C131 207 131 207 128 207 C128 207.66 128 208.32 128 209 C127.39937744 209.11593506 126.79875488 209.23187012 126.17993164 209.35131836 C123.47333141 209.87606471 120.76791952 210.40670147 118.0625 210.9375 C117.11697266 211.11990234 116.17144531 211.30230469 115.19726562 211.49023438 C113.84858398 211.75610352 113.84858398 211.75610352 112.47265625 212.02734375 C111.64000244 212.18968506 110.80734863 212.35202637 109.94946289 212.51928711 C108.00778088 212.81980263 108.00778088 212.81980263 107 214 C102.46435593 214.25609302 97.91700304 214.1852403 93.375 214.1875 C92.10269531 214.19974609 90.83039063 214.21199219 89.51953125 214.22460938 C83.24530091 214.23442308 77.91300156 214.10156361 72 212 C69.52547896 211.43749157 67.04621817 210.89539809 64.5625 210.375 C63.32628906 210.11460937 62.09007812 209.85421875 60.81640625 209.5859375 C59.88699219 209.39257812 58.95757812 209.19921875 58 209 C58 208.34 58 207.68 58 207 C57.27941406 206.88398438 56.55882812 206.76796875 55.81640625 206.6484375 C52.89664488 205.97620395 50.60156061 204.98379444 47.9375 203.625 C46.68259766 202.99464844 46.68259766 202.99464844 45.40234375 202.3515625 C39.48064104 199.02000292 39.48064104 199.02000292 38.13671875 196.16796875 C37.98847656 195.51441406 37.84023438 194.86085938 37.6875 194.1875 C37.44580078 193.21876953 37.44580078 193.21876953 37.19921875 192.23046875 C36.68750014 186.50122706 38.73528195 182.09288513 41.52734375 177.24609375 C41.87632217 176.6227565 42.2253006 175.99941925 42.58485413 175.35719299 C43.69404477 173.37911595 44.81506791 171.40808838 45.9375 169.4375 C47.05426205 167.46224672 48.16841581 165.48558494 49.2794342 163.50709534 C49.96902508 162.28061686 50.66222612 161.05615882 51.35960388 159.83409119 C53.16993072 156.63066543 54.72380111 153.45207962 56 150 C56.66 150 57.32 150 58 150 C58.28875 149.113125 58.5775 148.22625 58.875 147.3125 C59.83148748 144.49617576 60.86798946 141.74916844 62 139 C62.66 139 63.32 139 64 139 C65.485 134.545 65.485 134.545 67 130 C67.66 130 68.32 130 69 130 C69.28875 129.113125 69.5775 128.22625 69.875 127.3125 C70.83148748 124.49617576 71.86798946 121.74916844 73 119 C73.66 119 74.32 119 75 119 C76.485 114.545 76.485 114.545 78 110 C78.66 110 79.32 110 80 110 C80.28875 109.113125 80.5775 108.22625 80.875 107.3125 C81.83148748 104.49617576 82.86798946 101.74916844 84 99 C84.66 99 85.32 99 86 99 C86.38063221 96.6739143 86.71269945 94.33944736 87 92 C86.67 91.67 86.34 91.34 86 91 C86.08937803 89.47480724 86.24537146 87.95318071 86.4375 86.4375 C86.53933594 85.61121094 86.64117187 84.78492188 86.74609375 83.93359375 C86.87177734 82.97646484 86.87177734 82.97646484 87 82 C85.27046032 82.62396703 83.541385 83.24922128 81.8125 83.875 C80.84957031 84.22304687 79.88664062 84.57109375 78.89453125 84.9296875 C77.02941741 85.61935173 75.17613517 86.34236967 73.33984375 87.10546875 C69.22108506 88.68008601 65.7728877 88.7150647 61.65625 87.0546875 C57.07973155 84.69213414 54.25915651 82.76933042 52 78 C50.62514468 76.45833358 50.62514468 76.45833358 49 75 C48.175 74.154375 47.35 73.30875 46.5 72.4375 C43.41870518 69.43323755 41.91320217 68.0664147 37.5625 67.75 C34.17133984 67.74154519 34.17133984 67.74154519 32.13671875 69.0078125 C29.38749316 70.28441817 27.26555715 70.19679898 24.25 70.125 C23.26515625 70.10695313 22.2803125 70.08890625 21.265625 70.0703125 C20.51796875 70.04710937 19.7703125 70.02390625 19 70 C19.10720544 92.86122803 19.21996083 115.72242267 19.33933926 138.58359051 C19.39463794 149.19821257 19.44811446 159.812838 19.49731445 170.42749023 C19.54019736 179.67826668 19.58648574 188.92901872 19.63687855 198.17975742 C19.66344637 203.0787862 19.68829864 207.97781024 19.70907402 212.87686729 C19.72867883 217.48720998 19.75283412 222.09750634 19.78049088 226.70780754 C19.78984095 228.4004965 19.79752354 230.0931956 19.80341911 231.78590012 C19.81171507 234.09634638 19.82600141 236.40668127 19.84178162 238.71708679 C19.84823417 240.01036235 19.85468672 241.30363791 19.8613348 242.63610363 C19.89661619 245.89230335 19.89661619 245.89230335 20.57238865 248.58018208 C21.10652342 251.60280737 20.50562981 253.97656266 20 257 C19.92007316 258.81811398 19.88549476 260.6386847 19.89206123 262.45854282 C19.89337048 263.52345748 19.89467972 264.58837215 19.89602864 265.68555695 C19.90255385 266.84438556 19.90907906 268.00321418 19.915802 269.19715881 C19.91862525 270.4370355 19.9214485 271.67691219 19.9243573 272.9543609 C19.93115913 275.672769 19.9397854 278.39110081 19.95145988 281.10948563 C19.97035953 285.53378097 19.98216595 289.9580785 19.99278259 294.38240051 C20.00447886 299.14984585 20.01652998 303.91728826 20.03075147 308.68472683 C20.06567697 320.5199231 20.08170647 332.35504728 20.08639526 344.19029236 C20.0867651 345.04741983 20.08713493 345.9045473 20.08751597 346.78764833 C20.09049076 353.84682793 20.09266688 360.90600773 20.09441677 367.96518774 C20.09600357 374.32225128 20.09827292 380.67931406 20.1015625 387.03637695 C20.1020228 387.94260355 20.1024831 388.84883014 20.10295735 389.78251814 C20.111492 404.43417348 20.15587645 419.08552136 20.21273984 433.73705918 C20.27030961 448.80615458 20.28564688 463.87488928 20.26333606 478.94407934 C20.25097392 488.22224088 20.27124362 497.49912163 20.3346322 506.77708005 C20.37508906 513.15213843 20.37445529 519.52640221 20.34283216 525.90150637 C20.32583647 529.56869916 20.32576046 533.23360843 20.37517738 536.90055847 C20.59787288 554.45929956 18.78750944 566.77312062 9.30877852 581.68729961 C5.7761688 587.92966052 3.98474252 595.14133282 2 602 C1.34 602 0.68 602 0 602 C-0.15399205 559.64356684 -0.29888602 517.28710992 -0.4332476 474.93060976 C-0.44949845 469.80985944 -0.46581701 464.68910934 -0.48217773 459.56835938 C-0.48705712 458.04062104 -0.48705712 458.04062104 -0.49203508 456.48201931 C-0.53707826 442.42229931 -0.58568624 428.36259601 -0.6374263 414.30289912 C-0.72726422 389.8894599 -0.80927995 365.47600576 -0.87890625 341.0625 C-0.88307654 339.6086589 -0.88307654 339.6086589 -0.88733107 338.12544727 C-1.14194689 248.74712688 -0.67772378 159.37560738 0 70 C-0.67546875 70.02320313 -1.3509375 70.04640625 -2.046875 70.0703125 C-2.93890625 70.08835937 -3.8309375 70.10640625 -4.75 70.125 C-5.63171875 70.14820313 -6.5134375 70.17140625 -7.421875 70.1953125 C-10.13724194 69.98960288 -11.64414079 69.29611918 -14 68 C-16.2676653 67.86028867 -16.2676653 67.86028867 -18.5625 68.1875 C-19.32691406 68.26355469 -20.09132813 68.33960938 -20.87890625 68.41796875 C-23.37015414 69.10157084 -24.2702851 70.13992977 -26 72 C-26.66 72 -27.32 72 -28 72 C-28.20625 72.680625 -28.4125 73.36125 -28.625 74.0625 C-30.42895027 77.91639375 -32.9010345 81.07787764 -36 84 C-36.66 84 -37.32 84 -38 84 C-38.33 84.66 -38.66 85.32 -39 86 C-43.07939178 88.159678 -46.43370277 88.44914399 -51 88 C-53.60182806 87.12446421 -56.09996184 86.10887139 -58.62109375 85.0234375 C-61.36379389 83.84349097 -64.15398532 82.89874148 -67 82 C-66.67 82.66 -66.34 83.32 -66 84 C-65.86642547 87.67329964 -65.8328432 90.49852959 -67 94 C-65.79033496 96.95197077 -65.79033496 96.95197077 -64.0625 100.0625 C-61 105.81776765 -61 105.81776765 -61 108 C-60.34 108 -59.68 108 -59 108 C-57.79192495 110.41615011 -56.58423361 112.83247732 -55.37890625 115.25 C-54.520174 116.96259916 -53.65424252 118.67163114 -52.77734375 120.375 C-50 125.79032258 -50 125.79032258 -50 128 C-49.34 128 -48.68 128 -48 128 C-47.32880451 129.4562545 -46.66318193 130.91507867 -46 132.375 C-45.62875 133.18710937 -45.2575 133.99921875 -44.875 134.8359375 C-44 137 -44 137 -44 139 C-43.34 139 -42.68 139 -42 139 C-40.79192495 141.41615011 -39.58423361 143.83247732 -38.37890625 146.25 C-37.520174 147.96259916 -36.65424252 149.67163114 -35.77734375 151.375 C-33 156.79032258 -33 156.79032258 -33 159 C-32.34 159 -31.68 159 -31 159 C-30.32880451 160.4562545 -29.66318193 161.91507867 -29 163.375 C-28.62875 164.18710937 -28.2575 164.99921875 -27.875 165.8359375 C-27 168 -27 168 -27 170 C-26.34 170 -25.68 170 -25 170 C-24.01 172.97 -23.02 175.94 -22 179 C-21.34 179 -20.68 179 -20 179 C-16.97311788 184.93268895 -16.58023092 188.61162285 -18.6875 195.125 C-22.56063981 200.65805687 -29.45626591 205.09521683 -35.9375 206.75 C-36.618125 206.8325 -37.29875 206.915 -38 207 C-38 207.66 -38 208.32 -38 209 C-39.32 209.33 -40.64 209.66 -42 210 C-41.98428955 211.30332275 -41.9685791 212.60664551 -41.95239258 213.94946289 C-41.89702682 218.90528888 -41.86327302 223.86108933 -41.83520508 228.81713867 C-41.82035612 230.93958164 -41.80007177 233.06199533 -41.77368164 235.18432617 C-41.54069991 254.43958135 -42.75836214 273.48779867 -47.6875 292.1875 C-47.94241211 293.17250488 -48.19732422 294.15750977 -48.45996094 295.17236328 C-59.18218194 334.98037018 -85.84135222 370.17487841 -111.94140625 401.36328125 C-112.70928467 402.29261475 -112.70928467 402.29261475 -113.49267578 403.24072266 C-115 405 -115 405 -116.58154297 406.59912109 C-118.23562866 408.23909931 -118.23562866 408.23909931 -120 411 C-118.96095348 415.3078146 -117.07744826 418.91046401 -114.8671875 422.7265625 C-114.23409668 423.82637451 -113.60100586 424.92618652 -112.94873047 426.05932617 C-112.25751077 427.24789795 -111.56626661 428.4364555 -110.875 429.625 C-110.15582577 430.87116208 -109.43724913 432.1176692 -108.71923828 433.36450195 C-107.22666538 435.95515993 -105.73153826 438.54431646 -104.234375 441.13232422 C-101.09578329 446.56083107 -97.98100129 452.00291959 -94.86972046 457.44711304 C-94.20549655 458.60925525 -93.54096508 459.77122172 -92.87612915 460.93301392 C-87.46107077 470.39616003 -82.12913175 479.90380266 -76.82714844 489.43066406 C-73.18106902 495.95959111 -69.44097744 502.41732176 -65.48657227 508.76489258 C-63 512.796181 -63 512.796181 -63 515 C-53.76 515 -44.52 515 -35 515 C-35 458.24 -35 401.48 -35 343 C-28.07 343 -21.14 343 -14 343 C-14 407.02 -14 471.04 -14 537 C-33.8 537 -53.6 537 -74 537 C-88.47265625 511.39453125 -88.47265625 511.39453125 -94.0625 501.375 C-98.81174307 492.87719049 -103.60846858 484.40871033 -108.45458984 475.96582031 C-112.41861424 469.04818332 -116.30640543 462.08942593 -120.1875 455.125 C-125.28924333 445.97639559 -130.51498033 436.92403994 -136 428 C-137.66846734 429.69495956 -137.66846734 429.69495956 -139 432 C-138.61192573 436.34765929 -136.77077112 439.5787776 -134.6484375 443.33984375 C-134.14275742 444.24495445 -134.14275742 444.24495445 -133.62686157 445.16835022 C-132.54928664 447.09506314 -131.46280596 449.01654785 -130.375 450.9375 C-111.84210801 483.81364487 -111.84210801 483.81364487 -111.625 503.125 C-111.61090088 504.04345703 -111.59680176 504.96191406 -111.58227539 505.90820312 C-111.65867264 516.70052397 -114.34381436 525.24326407 -122 533 C-127.88514134 538.09721333 -133.26259253 541.11355397 -141 542 C-141.88042969 542.13148438 -142.76085937 542.26296875 -143.66796875 542.3984375 C-156.65993445 543.97640904 -170.05065779 542.62048109 -181 535 C-190.81203807 526.43289498 -195.80540884 514.73810903 -196.75 501.875 C-198.29130238 473.4309652 -181.91785711 451.17533109 -165 430 C-169.80296202 420.82664087 -174.79375306 411.7719037 -179.875 402.75 C-184.2668819 394.93736479 -188.61630218 387.10725981 -192.8125 379.1875 C-193.22677246 378.41180664 -193.64104492 377.63611328 -194.06787109 376.83691406 C-194.44379395 376.12116211 -194.8197168 375.40541016 -195.20703125 374.66796875 C-195.5316333 374.05203857 -195.85623535 373.4361084 -196.19067383 372.80151367 C-198.02247277 368.72403421 -198.83102245 364.4138268 -198 360 C-195.02224005 352.37573542 -192.01693316 347.31645687 -185.14453125 342.7734375 C-179.48739187 340.73315772 -171.52644817 341.10487091 -165.70703125 342.58203125 C-156.60475452 347.14358412 -151.2866279 359.33760354 -146.5625 367.75 C-145.2513966 370.05548229 -143.93891061 372.3601789 -142.625 374.6640625 C-142.00238281 375.75750977 -141.37976563 376.85095703 -140.73828125 377.97753906 C-137.62040419 383.3987916 -134.34698953 388.7175309 -131 394 C-123.32926473 385.94104252 -116.13004404 377.68899159 -109.39746094 368.83007812 C-107.98007257 366.97390356 -106.54223896 365.13501263 -105.1015625 363.296875 C-93.23870211 348.01083258 -83.1203551 331.56318163 -75 314 C-74.20529297 312.33710937 -74.20529297 312.33710937 -73.39453125 310.640625 C-66.3892049 295.29733951 -62.28774587 278.67256522 -60 262 C-59.85534302 261.00033203 -59.85534302 261.00033203 -59.70776367 259.98046875 C-58.57289307 250.82976496 -58.89231386 241.57762596 -58.9375 232.375 C-58.9425245 230.589845 -58.94708572 228.80468864 -58.95117188 227.01953125 C-58.96124594 222.67962561 -58.98083454 218.33991272 -59 214 C-68.24 214 -77.48 214 -87 214 C-87 213.34 -87 212.68 -87 212 C-88.50240234 212.04640625 -88.50240234 212.04640625 -90.03515625 212.09375 C-94.04350243 211.99897137 -97.53512433 211.39197158 -101.4375 210.5 C-102.67371094 210.2215625 -103.90992188 209.943125 -105.18359375 209.65625 C-106.11300781 209.4396875 -107.04242188 209.223125 -108 209 C-108 208.34 -108 207.68 -108 207 C-108.70125 206.9175 -109.4025 206.835 -110.125 206.75 C-113.70125637 205.81706355 -115.99840687 204.1439951 -119 202 C-120.0725 201.34 -121.145 200.68 -122.25 200 C-125.65492187 197.52369319 -126.71015605 195.71955499 -127.40625 191.58984375 C-127.64696604 184.77958567 -126.18630637 180.58443662 -122.66796875 174.79296875 C-120.0364908 170.38662979 -118.05306341 165.69660965 -116 161 C-115.34 161 -114.68 161 -114 161 C-113.62875 159.7625 -113.2575 158.525 -112.875 157.25 C-110.87666889 151.19708401 -107.94698158 145.63645991 -105 140 C-104.34 140 -103.68 140 -103 140 C-102.01 137.03 -101.02 134.06 -100 131 C-99.34 131 -98.68 131 -98 131 C-97.69255859 130.07767578 -97.69255859 130.07767578 -97.37890625 129.13671875 C-96.25260417 125.7578125 -95.12630208 122.37890625 -94 119 C-93.34 119 -92.68 119 -92 119 C-94.89532928 113.46543935 -98.26486613 109.13973929 -102.5625 104.625 C-103.18382812 103.96798096 -103.80515625 103.31096191 -104.4453125 102.6340332 C-109.60649183 97.25758395 -115.02367708 92.46143327 -121 88 C-122.00804687 87.2265625 -123.01609375 86.453125 -124.0546875 85.65625 C-143.59822436 70.96119977 -166.25947249 59.79763215 -189 51 C-188.67 50.34 -188.34 49.68 -188 49 C-179.40666542 50.88240439 -171.50443258 53.57264564 -163.4375 57.0625 C-162.30779785 57.54783203 -161.1780957 58.03316406 -160.01416016 58.53320312 C-132.01582908 70.73018179 -110.0724186 87.18508051 -88 108 C-87.01 106.515 -87.01 106.515 -86 105 C-85.57460937 104.40445313 -85.14921875 103.80890625 -84.7109375 103.1953125 C-80.9114948 97.30728726 -80.62707943 92.84696507 -81.21484375 85.91796875 C-81 83 -81 83 -79.12890625 80.6484375 C-76.93499368 78.94966483 -75.65176434 78.58007345 -73 78 C-72.401875 77.484375 -71.80375 76.96875 -71.1875 76.4375 C-68.00139634 74.34377474 -65.76236834 74.6864693 -62 75 C-60.66069422 75.30846216 -59.32706225 75.64251618 -58 76 C-54.14791954 77.00392058 -51.0022381 77.66703968 -47 77 C-43.35953455 73.94535657 -41.01030772 70.26600512 -39 66 C-38.34 66 -37.68 66 -37 66 C-36.814375 65.29875 -36.62875 64.5975 -36.4375 63.875 C-34.31708184 59.63416368 -30.73312364 55.99171657 -26.19140625 54.34375 C-23.21689611 53.87716017 -20.32341451 53.78974805 -17.3125 53.75 C-16.15363281 53.72421875 -14.99476563 53.6984375 -13.80078125 53.671875 C-10 54 -10 54 -1 57 C-0.67 38.19 -0.34 19.38 0 0 Z M-77 95 C-78.39489126 97.57426284 -79.76570979 100.15703057 -81.125 102.75 C-81.52332031 103.47960937 -81.92164063 104.20921875 -82.33203125 104.9609375 C-82.69941406 105.66992188 -83.06679687 106.37890625 -83.4453125 107.109375 C-83.79094238 107.75874023 -84.13657227 108.40810547 -84.49267578 109.07714844 C-85.21304034 111.05334913 -85.21304034 111.05334913 -84.20288086 113.109375 C-82.78280471 115.34137615 -81.19292665 117.27102215 -79.4375 119.25 C-78.50744141 120.30960938 -78.50744141 120.30960938 -77.55859375 121.390625 C-77.04425781 121.92171875 -76.52992188 122.4528125 -76 123 C-75.67 123 -75.34 123 -75 123 C-75 113.76 -75 104.52 -75 95 C-75.66 95 -76.32 95 -77 95 Z M-72 95 C-72.2253713 99.47968793 -72.38708485 103.95623579 -72.49438477 108.43994141 C-72.53917869 109.95908162 -72.60024536 111.47784453 -72.67895508 112.99560547 C-73.28200857 124.93842943 -71.17624268 130.82784881 -63 140 C-61.25750461 142.56493964 -59.73418839 145.21648794 -58.25 147.9375 C-57.87858887 148.61369385 -57.50717773 149.2898877 -57.12451172 149.98657227 C-50.80843692 161.72806419 -48.02098645 172.91677194 -46 186 C-38.08 186 -30.16 186 -22 186 C-23.3134761 181.92273927 -23.3134761 181.92273927 -25 178 C-25.66 178 -26.32 178 -27 178 C-27.20496094 177.37351562 -27.40992188 176.74703125 -27.62109375 176.1015625 C-27.89050781 175.28429687 -28.15992188 174.46703125 -28.4375 173.625 C-28.70433594 172.81289063 -28.97117187 172.00078125 -29.24609375 171.1640625 C-29.95179729 168.98968201 -29.95179729 168.98968201 -31 167 C-31.66 167 -32.32 167 -33 167 C-33.1546875 165.948125 -33.1546875 165.948125 -33.3125 164.875 C-34.09359003 161.60862353 -35.42058743 158.9528148 -37 156 C-37.66 156 -38.32 156 -39 156 C-39.12375 155.2575 -39.2475 154.515 -39.375 153.75 C-39.95486701 151.19858515 -40.73708739 149.2732427 -42 147 C-42.66 147 -43.32 147 -44 147 C-44.08121094 146.33613281 -44.16242188 145.67226563 -44.24609375 144.98828125 C-45.24807812 141.01668518 -47.08633454 137.75415441 -49.0625 134.1875 C-49.43955078 133.49462891 -49.81660156 132.80175781 -50.20507812 132.08789062 C-51.13083852 130.38871015 -52.06462312 128.69390575 -53 127 C-53.66 127 -54.32 127 -55 127 C-55.103125 126.29875 -55.20625 125.5975 -55.3125 124.875 C-56.09359003 121.60862353 -57.42058743 118.9528148 -59 116 C-59.66 116 -60.32 116 -61 116 C-61.07089844 115.34644531 -61.14179688 114.69289063 -61.21484375 114.01953125 C-62.30606185 109.82295615 -64.38766514 106.41436097 -66.5625 102.6875 C-66.98724609 101.94693359 -67.41199219 101.20636719 -67.84960938 100.44335938 C-68.89351653 98.62531882 -69.94592192 96.81216252 -71 95 C-71.33 95 -71.66 95 -72 95 Z M91 95 C91 95.99 91 96.98 91 98 C90.34 98 89.68 98 89 98 C88.01 100.97 87.02 103.94 86 107 C85.34 107 84.68 107 84 107 C83.32880451 108.4562545 82.66318193 109.91507867 82 111.375 C81.62875 112.18710938 81.2575 112.99921875 80.875 113.8359375 C79.87504987 115.91998433 79.87504987 115.91998433 80 118 C79.34 118 78.68 118 78 118 C75.64089647 122.2637281 75.64089647 122.2637281 75 127 C74.34 127 73.68 127 73 127 C72.32880451 128.4562545 71.66318193 129.91507867 71 131.375 C70.443125 132.59316406 70.443125 132.59316406 69.875 133.8359375 C68.87504987 135.91998433 68.87504987 135.91998433 69 138 C68.34 138 67.68 138 67 138 C66.70867187 138.59425781 66.41734375 139.18851563 66.1171875 139.80078125 C62.90596242 146.29391875 59.49634261 152.65676264 56 159 C54.50311373 161.74105148 53.00894615 164.48356734 51.515625 167.2265625 C50.46932121 169.14119058 49.41684584 171.05245441 48.359375 172.9609375 C47.82828125 173.92257812 47.2971875 174.88421875 46.75 175.875 C46.27046875 176.73867188 45.7909375 177.60234375 45.296875 178.4921875 C44.04135622 180.92002803 43.0151091 183.46222725 42 186 C58.5 186 75 186 92 186 C92 155.97 92 125.94 92 95 C91.67 95 91.34 95 91 95 Z M96 95 C94.84077915 99.150987 94.86721429 103.15937817 94.88647461 107.44042969 C94.88632858 108.28957443 94.88618256 109.13871918 94.8860321 110.01359558 C94.88672799 112.8163815 94.89450524 115.61910071 94.90234375 118.421875 C94.90420908 120.36671919 94.90563244 122.31156386 94.90663147 124.25640869 C94.91044758 129.37247009 94.92027016 134.48850305 94.93133545 139.60455322 C94.94336863 145.74445508 94.94795612 151.88436645 94.95378876 158.02427673 C94.96348238 167.34953759 94.98264529 176.67473607 95 186 C111.17 186 127.34 186 144 186 C143.01 183.36 142.02 180.72 141 178 C140.34 178 139.68 178 139 178 C138.01 175.03 137.02 172.06 136 169 C135.34 169 134.68 169 134 169 C133.8453125 167.948125 133.8453125 167.948125 133.6875 166.875 C132.8924009 163.55004015 131.60009993 161.02876058 130 158 C129.10094763 156.20994647 128.20529704 154.4181816 127.3125 152.625 C126.87550781 151.75101563 126.43851562 150.87703125 125.98828125 149.9765625 C125.66214844 149.32429688 125.33601563 148.67203125 125 148 C124.34 148 123.68 148 123 148 C122.91878906 147.34644531 122.83757812 146.69289063 122.75390625 146.01953125 C121.73019907 141.91939836 119.87261014 138.42737607 117.9375 134.6875 C117.56044922 133.94693359 117.18339844 133.20636719 116.79492188 132.44335938 C115.86871843 130.62612478 114.93509371 128.81267596 114 127 C113.34 127 112.68 127 112 127 C111.81824219 126.32453125 111.63648438 125.6490625 111.44921875 124.953125 C111.19785156 124.06109375 110.94648438 123.1690625 110.6875 122.25 C110.44386719 121.36828125 110.20023437 120.4865625 109.94921875 119.578125 C108.96867538 116.91492078 107.756614 115.20598037 106 113 C105.34021262 111.81030464 104.71453624 110.6010267 104.125 109.375 C103.62613281 108.35019531 103.62613281 108.35019531 103.1171875 107.3046875 C102.74851562 106.54414063 102.37984375 105.78359375 102 105 C101.08542439 103.16562263 100.16874233 101.33229403 99.25 99.5 C98.5 98 97.75 96.5 97 95 C96.67 95 96.34 95 96 95 Z M-90 121 C-91.33819498 123.6226232 -92.6707151 126.24786599 -94 128.875 C-94.3815625 129.62136719 -94.763125 130.36773437 -95.15625 131.13671875 C-95.5171875 131.85214844 -95.878125 132.56757813 -96.25 133.3046875 C-96.58515625 133.96452637 -96.9203125 134.62436523 -97.265625 135.30419922 C-98.13246413 136.9978855 -98.13246413 136.9978855 -98 139 C-98.66 139 -99.32 139 -100 139 C-106.02911453 149.06517297 -106.02911453 149.06517297 -109 160 C-109.66 160 -110.32 160 -111 160 C-111.31453125 160.6290625 -111.6290625 161.258125 -111.953125 161.90625 C-112.38109375 162.7621875 -112.8090625 163.618125 -113.25 164.5 C-113.92869141 165.86318359 -113.92869141 165.86318359 -114.62109375 167.25390625 C-115.47559567 168.95564803 -116.34076434 170.65213368 -117.22265625 172.33984375 C-119.40631508 176.44919779 -119.40631508 176.44919779 -120 181 C-120.66 181 -121.32 181 -122 181 C-122.99 183.475 -122.99 183.475 -124 186 C-107.83 186 -91.66 186 -75 186 C-72.80680772 151.79421802 -72.80680772 151.79421802 -88.359375 122.4140625 C-88.90078125 121.94742188 -89.4421875 121.48078125 -90 121 Z M-72 158 C-72 167.24 -72 176.48 -72 186 C-69.36 186 -66.72 186 -64 186 C-64.59682298 179.53315857 -66.12454483 173.68706803 -68.0625 167.5 C-68.34416016 166.5821875 -68.62582031 165.664375 -68.91601562 164.71875 C-69.6048013 162.47727797 -70.29955305 160.23784969 -71 158 C-71.33 158 -71.66 158 -72 158 Z M-176 360 C-176.99 360.66 -177.98 361.32 -179 362 C-178.40868144 365.89066683 -177.24084992 368.73737097 -175.296875 372.1484375 C-174.73436035 373.14367432 -174.1718457 374.13891113 -173.59228516 375.16430664 C-172.98433105 376.22383545 -172.37637695 377.28336426 -171.75 378.375 C-171.13044434 379.4673999 -170.51088867 380.5597998 -169.87255859 381.68530273 C-168.57570204 383.97098366 -167.27600705 386.25505618 -165.97363281 388.53759766 C-163.42508652 393.00858769 -160.8966137 397.49076898 -158.36816406 401.97314453 C-155.91660088 406.31797374 -153.45872438 410.65922038 -151 415 C-149.35 413.35 -147.7 411.7 -146 410 C-147.33335823 405.58229656 -149.07778832 401.81159495 -151.37890625 397.81640625 C-151.8713382 396.95659149 -151.8713382 396.95659149 -152.37371826 396.07940674 C-153.43097512 394.23710443 -154.49619947 392.39958048 -155.5625 390.5625 C-156.29147106 389.29984527 -157.02023024 388.03706819 -157.7487793 386.77416992 C-159.17819845 384.29961892 -160.61170461 381.82750598 -162.04882812 379.35742188 C-163.69223869 376.52957127 -165.32465701 373.69583636 -166.953125 370.859375 C-167.73841663 369.50973714 -168.5247459 368.16070205 -169.3125 366.8125 C-170.29669922 365.12060547 -170.29669922 365.12060547 -171.30078125 363.39453125 C-172.84076136 360.72492934 -172.84076136 360.72492934 -176 360 Z M-154 449 C-159.55587251 455.34787987 -164.73906237 461.80354278 -169.4375 468.8125 C-169.84983887 469.4216626 -170.26217773 470.0308252 -170.68701172 470.65844727 C-177.23492726 480.60452846 -178.78410205 489.18559196 -177 501 C-174.77393596 508.99193482 -169.54950829 515.92114881 -162.625 520.5 C-156.85162135 522.88898427 -152.88105855 522.9395554 -146.93359375 521 C-140.63150947 518.2781182 -136.30483431 515.52377626 -133.7109375 509.01953125 C-128.69605132 487.72004214 -140.3518509 469.93941554 -150.56713867 452.17041016 C-151.81763253 449.88283179 -151.81763253 449.88283179 -154 449 Z " fill="#7E5E20" transform="translate(333,134)"/>
<path d="M0 0 C0.33 0 0.66 0 1 0 C1 157.08 1 314.16 1 476 C-50.15 476 -101.3 476 -154 476 C-154 479.63 -154 483.26 -154 487 C-155.18720968 496.0389828 -156.50720217 503.40576174 -163.8125 509.25 C-171.14428808 513.27529542 -177.79146331 513.28283142 -186 513.1875 C-187.05445313 513.18685547 -188.10890625 513.18621094 -189.1953125 513.18554688 C-194.56389562 513.15527291 -199.71175829 512.93896337 -205 512 C-205 511.34 -205 510.68 -205 510 C-203.77023437 509.74605469 -202.54046875 509.49210937 -201.2734375 509.23046875 C-199.6405336 508.88324206 -198.00772611 508.53556177 -196.375 508.1875 C-195.16263672 507.9390332 -195.16263672 507.9390332 -193.92578125 507.68554688 C-187.03650003 506.31646824 -187.03650003 506.31646824 -181 503 C-174.60315095 492.92633551 -175.35039882 482.02449666 -175.49926758 470.5949707 C-175.50719846 468.54872384 -175.51276939 466.50246668 -175.51617432 464.45620728 C-175.52766082 460.07073539 -175.55406084 455.68570219 -175.59180641 451.3003788 C-175.6497868 444.36168818 -175.6639828 437.42332569 -175.670578 430.48442078 C-175.69593536 410.76072497 -175.77980411 391.03750166 -175.90698242 371.31420898 C-175.97694109 360.40494034 -176.01094675 349.49613767 -176.00656623 338.58664006 C-176.00596557 331.69220693 -176.05013892 324.79998466 -176.12779868 317.90601122 C-176.16566611 313.6158976 -176.16168466 309.32657092 -176.14601135 305.03635025 C-176.14712457 303.05174941 -176.16532582 301.06707105 -176.2021389 299.08281136 C-176.46610833 284.12137047 -176.46610833 284.12137047 -172.76703453 278.76903343 C-166.55462529 273 -166.55462529 273 -163 273 C-162.73316406 272.42765625 -162.46632813 271.8553125 -162.19140625 271.265625 C-160.95103193 268.90688039 -159.54054336 266.876888 -157.9375 264.75 C-157.14666016 263.69039063 -157.14666016 263.69039063 -156.33984375 262.609375 C-155.89769531 262.07828125 -155.45554687 261.5471875 -155 261 C-154.67 261 -154.34 261 -154 261 C-154 324.69 -154 388.38 -154 454 C-145.65850618 453.77080956 -145.65850618 453.77080956 -142 451 C-141.53396341 447.97674206 -141.53396341 447.97674206 -141.60127258 444.34359741 C-141.59130234 443.30585361 -141.59130234 443.30585361 -141.58113068 442.2471453 C-141.56240612 439.91770849 -141.56511219 437.58878106 -141.56762695 435.25927734 C-141.55861552 433.59397144 -141.54828984 431.92867221 -141.53674316 430.26338196 C-141.50907415 425.73263583 -141.49987528 421.20201521 -141.49388909 416.67119551 C-141.48453108 411.93989519 -141.4583299 407.20868959 -141.43388367 402.47744751 C-141.39014393 393.51375149 -141.36164295 384.55007377 -141.33856028 375.58630335 C-141.31154858 365.38325295 -141.26763467 355.18029746 -141.22227156 344.97731471 C-141.12931828 323.98492747 -141.05768656 302.99251182 -141 282 C-136.46515136 281.90027399 -131.9309568 281.82813345 -127.39526367 281.78027344 C-125.85608789 281.76029879 -124.31698662 281.73310903 -122.77807617 281.69824219 C-105.41281842 281.31497782 -105.41281842 281.31497782 -99 286 C-94.36446532 290.9337807 -92.87627634 295.40370665 -92.86869812 302.05966187 C-92.86468994 303.32709732 -92.86068176 304.59453278 -92.85655212 305.90037537 C-92.85702722 307.3077698 -92.85756333 308.71516421 -92.8581543 310.12255859 C-92.85512269 311.60255538 -92.85160123 313.08255123 -92.84762573 314.56254578 C-92.83973679 317.75134764 -92.83459185 320.94013832 -92.83133507 324.12894821 C-92.82542611 329.17133765 -92.80888711 334.21365646 -92.78999329 339.25601196 C-92.78365593 340.98208423 -92.77733031 342.70815654 -92.77101612 344.4342289 C-92.76785031 345.29864326 -92.7646845 346.16305762 -92.76142275 347.05366635 C-92.71933816 358.79357759 -92.68636519 370.53345584 -92.67407227 382.2734375 C-92.66569598 390.19157656 -92.64322216 398.10954073 -92.6047166 406.0275923 C-92.58494261 410.21795254 -92.57255579 414.40805126 -92.57755089 418.59846115 C-92.58219226 422.54008066 -92.56842049 426.48120425 -92.54053879 430.42272377 C-92.53361856 431.86868601 -92.53350944 433.31469944 -92.54073906 434.76066017 C-92.54961706 436.73589994 -92.53159626 438.71120585 -92.51225281 440.68637085 C-92.50986445 441.79139135 -92.5074761 442.89641186 -92.50501537 444.03491783 C-91.88272446 447.68855647 -90.54917415 449.35958351 -88 452 C-85.70370006 453.14814997 -83.92301914 453.30769809 -81.375 453.5625 C-80.55773437 453.64628906 -79.74046875 453.73007812 -78.8984375 453.81640625 C-78.27195312 453.87699219 -77.64546875 453.93757813 -77 454 C-77.00368717 453.20339211 -77.00737434 452.40678421 -77.01117325 451.58603668 C-77.0995699 432.18902207 -77.16573182 412.79204774 -77.20724869 393.39487457 C-77.22786039 384.01447814 -77.25595436 374.63421629 -77.30175781 365.25390625 C-77.34166822 357.07655289 -77.36744293 348.89929702 -77.37635398 340.72184896 C-77.38156162 336.39324466 -77.39377233 332.06491922 -77.42292023 327.73640442 C-77.45015587 323.65866173 -77.45842864 319.58131165 -77.45243073 315.50348663 C-77.45352733 314.01037204 -77.46143282 312.51724375 -77.4768219 311.02420807 C-77.56550458 301.97309296 -77.16424108 295.36586288 -71.4296875 287.9765625 C-65.4568735 282.78411616 -59.88003494 281.87621025 -52.08203125 282.125 C-45.13700407 282.64681029 -39.0376487 283.55980483 -33.48046875 288.07421875 C-29.05753354 293.82753553 -28.54708877 299.41898134 -28.5324707 306.42016602 C-28.51918228 307.33813965 -28.50589386 308.25611328 -28.49220276 309.2019043 C-28.45368615 312.2193274 -28.43794143 315.23626865 -28.42578125 318.25390625 C-28.41105324 320.35945234 -28.39617363 322.46499738 -28.38114929 324.57054138 C-28.35420804 328.97601381 -28.34062045 333.3813181 -28.33422852 337.78686523 C-28.32333508 343.42884792 -28.26153159 349.06905252 -28.1875124 354.71051121 C-28.13913725 359.0557407 -28.12670184 363.40053975 -28.12416649 367.74601555 C-28.11693927 369.82608744 -28.09648004 371.90615753 -28.06246376 373.98596382 C-28.01849819 376.89507032 -28.0251786 379.7999444 -28.04418945 382.70922852 C-28.00811584 383.9928553 -28.00811584 383.9928553 -27.97131348 385.30241394 C-28.04153594 388.95476634 -28.14640088 391.12193448 -30.75971031 393.81014824 C-32.90812683 395.40904236 -32.90812683 395.40904236 -35.04671001 396.74595547 C-41.34434265 400.78913996 -45.54343599 409.09091372 -48 416 C-48.66 416 -49.32 416 -50 416 C-50 378.71 -50 341.42 -50 303 C-51.65 302.67 -53.3 302.34 -55 302 C-55.33 352.16 -55.66 402.32 -56 454 C-44.12 454 -32.24 454 -20 454 C-20.02442673 448.76707596 -20.04885345 443.53415192 -20.07402039 438.14265442 C-20.29295741 390.14431191 -20.45715036 342.14602853 -20.56171862 294.14729576 C-20.57547623 287.85511352 -20.58971379 281.56293245 -20.60424805 275.27075195 C-20.60713346 274.01810378 -20.61001888 272.76545562 -20.61299173 271.47484841 C-20.66084289 251.19795492 -20.74756564 230.92140483 -20.84868076 210.64471499 C-20.95158521 189.83549529 -21.01265449 169.02645531 -21.03497344 148.2169916 C-21.05005924 135.3785142 -21.09768644 122.54100747 -21.18708114 109.70282891 C-21.24527373 100.89651354 -21.26279076 92.09069922 -21.24851515 83.28420559 C-21.24147621 78.20458615 -21.25218374 73.12666145 -21.31126022 68.04734421 C-21.36502339 63.39071975 -21.36735494 58.73691959 -21.32988784 54.08016165 C-21.32526183 52.40155318 -21.33903076 50.72276431 -21.37371501 49.04450784 C-21.55141758 39.91012633 -20.90752634 33.77626296 -14.63607502 26.79636669 C-13.66540308 25.80304782 -12.68744664 24.8167831 -11.7015422 23.83858126 C-5.47779027 17.29912183 -2.5546292 8.51543065 0 0 Z M-120 300 C-120.09342733 319.34078963 -120.16397134 338.68153348 -120.20724869 358.02250195 C-120.22787692 367.0027896 -120.25600247 375.98293708 -120.30175781 384.96313477 C-120.34161763 392.78997319 -120.36743091 400.6167101 -120.37635398 408.44364721 C-120.3815702 412.58827837 -120.39383544 416.7326191 -120.42292023 420.87715721 C-120.45007597 424.77842847 -120.45844478 428.67928972 -120.45243073 432.58064651 C-120.4535309 434.01213242 -120.46148422 435.44363208 -120.4768219 436.87503624 C-120.49674796 438.83062688 -120.48954871 440.78643766 -120.48101807 442.74211121 C-120.48470524 443.83627948 -120.48839241 444.93044775 -120.49219131 446.05777264 C-119.87989311 449.71797645 -118.61121354 451.40512099 -116 454 C-113.33071879 454.41870553 -113.33071879 454.41870553 -111 454 C-111.48700929 452.95078086 -111.48700929 452.95078086 -111.98385715 451.88036537 C-113.10649736 448.69812187 -113.25309623 446.28236477 -113.25828552 442.91415405 C-113.26852753 441.08026878 -113.26852753 441.08026878 -113.27897644 439.20933533 C-113.27655733 437.86270112 -113.27397308 436.5160672 -113.27124023 435.16943359 C-113.2756294 433.74500735 -113.28093225 432.32058368 -113.28707886 430.89616394 C-113.29856244 427.83397223 -113.30403704 424.77184957 -113.30496025 421.70963669 C-113.30690248 416.8692369 -113.32496239 412.02897994 -113.34571838 407.18862915 C-113.39487885 395.16947345 -113.42582187 383.15027914 -113.44702148 371.13104248 C-113.46353103 361.78352402 -113.48629467 352.43612838 -113.53004223 343.08869231 C-113.5518534 338.27494583 -113.55987334 333.4614325 -113.55764949 328.64763999 C-113.55931302 325.65704583 -113.57334087 322.66660477 -113.59086227 319.67606544 C-113.59647393 318.28730822 -113.59693586 316.89851942 -113.59192467 315.5097599 C-113.58581006 313.61712743 -113.59972668 311.72446154 -113.61473083 309.83187866 C-113.61674216 308.77185827 -113.61875349 307.71183788 -113.62082577 306.61969566 C-113.79074555 303.98426279 -113.79074555 303.98426279 -115.33657932 302.19800758 C-117.1035526 300.80002651 -117.1035526 300.80002651 -120 300 Z " fill="#012065" transform="translate(560,195)"/>
<path d="M0 0 C0.98513571 4.95973383 1.17518758 9.71294611 1.203125 14.74609375 C1.21018463 15.58552521 1.21724426 16.42495667 1.22451782 17.28982544 C1.45733125 53.1699724 1.45733125 53.1699724 -2 70 C-2.19867676 70.97098633 -2.39735352 71.94197266 -2.60205078 72.94238281 C-12.22565735 118.19856411 -39.68659348 156.40508213 -68.94140625 191.36328125 C-69.4533252 191.98283691 -69.96524414 192.60239258 -70.49267578 193.24072266 C-72 195 -72 195 -73.58154297 196.59912109 C-75.23562866 198.23909931 -75.23562866 198.23909931 -77 201 C-75.96095348 205.3078146 -74.07744826 208.91046401 -71.8671875 212.7265625 C-71.23409668 213.82637451 -70.60100586 214.92618652 -69.94873047 216.05932617 C-69.25751077 217.24789795 -68.56626661 218.4364555 -67.875 219.625 C-67.15582577 220.87116208 -66.43724913 222.1176692 -65.71923828 223.36450195 C-64.22666538 225.95515993 -62.73153826 228.54431646 -61.234375 231.13232422 C-58.09578329 236.56083107 -54.98100129 242.00291959 -51.86972046 247.44711304 C-51.20549655 248.60925525 -50.54096508 249.77122172 -49.87612915 250.93301392 C-44.46107077 260.39616003 -39.12913175 269.90380266 -33.82714844 279.43066406 C-30.18106902 285.95959111 -26.44097744 292.41732176 -22.48657227 298.76489258 C-20 302.796181 -20 302.796181 -20 305 C-10.76 305 -1.52 305 8 305 C8 248.24 8 191.48 8 133 C14.93 133 21.86 133 29 133 C29 197.02 29 261.04 29 327 C9.2 327 -10.6 327 -31 327 C-45.47265625 301.39453125 -45.47265625 301.39453125 -51.0625 291.375 C-55.81174307 282.87719049 -60.60846858 274.40871033 -65.45458984 265.96582031 C-69.41861424 259.04818332 -73.30640543 252.08942593 -77.1875 245.125 C-82.28924333 235.97639559 -87.51498033 226.92403994 -93 218 C-94.66846734 219.69495956 -94.66846734 219.69495956 -96 222 C-95.61192573 226.34765929 -93.77077112 229.5787776 -91.6484375 233.33984375 C-91.31131744 233.94325089 -90.97419739 234.54665802 -90.62686157 235.16835022 C-89.54928664 237.09506314 -88.46280596 239.01654785 -87.375 240.9375 C-68.84210801 273.81364487 -68.84210801 273.81364487 -68.625 293.125 C-68.61090088 294.04345703 -68.59680176 294.96191406 -68.58227539 295.90820312 C-68.65867264 306.70052397 -71.34381436 315.24326407 -79 323 C-84.88514134 328.09721333 -90.26259253 331.11355397 -98 332 C-98.88042969 332.13148438 -99.76085937 332.26296875 -100.66796875 332.3984375 C-113.65993445 333.97640904 -127.05065779 332.62048109 -138 325 C-147.81203807 316.43289498 -152.80540884 304.73810903 -153.75 291.875 C-155.29130238 263.4309652 -138.91785711 241.17533109 -122 220 C-126.80296202 210.82664087 -131.79375306 201.7719037 -136.875 192.75 C-141.2668819 184.93736479 -145.61630218 177.10725981 -149.8125 169.1875 C-150.22677246 168.41180664 -150.64104492 167.63611328 -151.06787109 166.83691406 C-151.44379395 166.12116211 -151.8197168 165.40541016 -152.20703125 164.66796875 C-152.5316333 164.05203857 -152.85623535 163.4361084 -153.19067383 162.80151367 C-155.02247277 158.72403421 -155.83102245 154.4138268 -155 150 C-152.02224005 142.37573542 -149.01693316 137.31645687 -142.14453125 132.7734375 C-136.48739187 130.73315772 -128.52644817 131.10487091 -122.70703125 132.58203125 C-113.60475452 137.14358412 -108.2866279 149.33760354 -103.5625 157.75 C-102.2513966 160.05548229 -100.93891061 162.3601789 -99.625 164.6640625 C-99.00238281 165.75750977 -98.37976563 166.85095703 -97.73828125 167.97753906 C-94.62040419 173.3987916 -91.34698953 178.7175309 -88 184 C-80.32926473 175.94104252 -73.13004404 167.68899159 -66.39746094 158.83007812 C-64.98007257 156.97390356 -63.54223896 155.13501263 -62.1015625 153.296875 C-50.23870211 138.01083258 -40.1203551 121.56318163 -32 104 C-31.47019531 102.89140625 -30.94039063 101.7828125 -30.39453125 100.640625 C-20.76808233 79.55647467 -15.75326167 55.6422354 -15.90234375 32.4921875 C-15.9037587 31.64069122 -15.90517365 30.78919495 -15.90663147 29.91189575 C-15.91216081 27.23289241 -15.92469926 24.55397743 -15.9375 21.875 C-15.94252416 20.04166789 -15.94708545 18.20833444 -15.95117188 16.375 C-15.96210694 11.91663341 -15.97932128 7.45833161 -16 3 C-10.65429 1.44189021 -5.59836396 0 0 0 Z M-133 150 C-133.99 150.66 -134.98 151.32 -136 152 C-135.40868144 155.89066683 -134.24084992 158.73737097 -132.296875 162.1484375 C-131.73436035 163.14367432 -131.1718457 164.13891113 -130.59228516 165.16430664 C-129.98433105 166.22383545 -129.37637695 167.28336426 -128.75 168.375 C-128.13044434 169.4673999 -127.51088867 170.5597998 -126.87255859 171.68530273 C-125.57570204 173.97098366 -124.27600705 176.25505618 -122.97363281 178.53759766 C-120.42508652 183.00858769 -117.8966137 187.49076898 -115.36816406 191.97314453 C-112.91660088 196.31797374 -110.45872438 200.65922038 -108 205 C-106.35 203.35 -104.7 201.7 -103 200 C-104.33335823 195.58229656 -106.07778832 191.81159495 -108.37890625 187.81640625 C-108.8713382 186.95659149 -108.8713382 186.95659149 -109.37371826 186.07940674 C-110.43097512 184.23710443 -111.49619947 182.39958048 -112.5625 180.5625 C-113.29147106 179.29984527 -114.02023024 178.03706819 -114.7487793 176.77416992 C-116.17819845 174.29961892 -117.61170461 171.82750598 -119.04882812 169.35742188 C-120.69223869 166.52957127 -122.32465701 163.69583636 -123.953125 160.859375 C-124.73841663 159.50973714 -125.5247459 158.16070205 -126.3125 156.8125 C-127.29669922 155.12060547 -127.29669922 155.12060547 -128.30078125 153.39453125 C-129.84076136 150.72492934 -129.84076136 150.72492934 -133 150 Z M-111 239 C-116.55587251 245.34787987 -121.73906237 251.80354278 -126.4375 258.8125 C-126.84983887 259.4216626 -127.26217773 260.0308252 -127.68701172 260.65844727 C-134.23492726 270.60452846 -135.78410205 279.18559196 -134 291 C-131.77393596 298.99193482 -126.54950829 305.92114881 -119.625 310.5 C-113.85162135 312.88898427 -109.88105855 312.9395554 -103.93359375 311 C-97.63150947 308.2781182 -93.30483431 305.52377626 -90.7109375 299.01953125 C-85.69605132 277.72004214 -97.3518509 259.93941554 -107.56713867 242.17041016 C-108.81763253 239.88283179 -108.81763253 239.88283179 -111 239 Z " fill="#012065" transform="translate(290,344)"/>
<path d="M0 0 C0.66 0 1.32 0 2 0 C2.26627197 0.62865967 2.53254395 1.25731934 2.80688477 1.9050293 C4.05236876 4.83528031 5.30740015 7.76135548 6.5625 10.6875 C6.98080078 11.67556641 7.39910156 12.66363281 7.83007812 13.68164062 C10.45197629 19.87629105 10.45197629 19.87629105 13.77943408 25.70569897 C20.40178871 35.94337478 19.99583855 45.58661669 19.915802 57.42895508 C19.92674414 59.59899485 19.94071783 61.76902108 19.95744503 63.93902397 C19.99431797 69.87796078 19.9877435 75.81616339 19.97370887 81.75516868 C19.96609064 88.16993746 19.99868472 94.58452352 20.02587891 100.9992218 C20.07239179 113.5583285 20.08058836 126.11716988 20.0740905 138.6763497 C20.06904399 148.88946687 20.07641093 159.10250754 20.09246445 169.31561279 C20.09471963 170.78509847 20.09696965 172.25458415 20.09921452 173.72406983 C20.10260577 175.93872583 20.10599923 178.15338182 20.10941703 180.36803778 C20.1408449 200.95084565 20.15782199 221.53362507 20.14485359 242.11645508 C20.14412653 243.27952442 20.14412653 243.27952442 20.14338478 244.46609011 C20.14088449 248.3956237 20.13824814 252.32515719 20.13556017 256.25469065 C20.13502696 257.03504429 20.13449375 257.81539793 20.13394439 258.61939865 C20.13286398 260.19746354 20.13177659 261.77552842 20.13068224 263.35359329 C20.11400821 287.89298182 20.14526675 312.43189907 20.21435547 336.97119141 C20.29198432 364.57168358 20.33263175 392.17188077 20.31966579 419.77248859 C20.31840523 422.71961272 20.31727186 425.66673687 20.31621933 428.61386108 C20.31593548 429.339461 20.31565163 430.06506091 20.31535918 430.81264871 C20.31184213 441.73481721 20.33700387 452.65667716 20.37698746 463.57876587 C20.42247408 476.01328077 20.4281305 488.44708687 20.38510753 500.88162261 C20.36423197 507.21981399 20.36065121 513.55670374 20.40546799 519.89480019 C20.4461197 525.71023184 20.43493895 531.52329427 20.3843988 537.33862722 C20.37497661 539.42944756 20.38366392 541.52045542 20.41346647 543.61108458 C20.59882318 557.58822987 17.92527323 567.16326458 10.71819675 579.18824577 C6.50097171 586.27966624 4.28073528 594.11847177 2 602 C1.34 602 0.68 602 0 602 C0 403.34 0 204.68 0 0 Z " fill="#012065" transform="translate(579,134)"/>
<path d="M0 0 C13.42693897 13.13656641 22.71249053 31.52052129 26 50 C26 52.64 26 55.28 26 58 C20.06 58 14.12 58 8 58 C7.59007812 56.48148437 7.18015625 54.96296875 6.7578125 53.3984375 C6.21363236 51.39060042 5.66935649 49.38278928 5.125 47.375 C4.85558594 46.37597656 4.58617187 45.37695312 4.30859375 44.34765625 C4.04433594 43.37441406 3.78007812 42.40117187 3.5078125 41.3984375 C3.26691895 40.50817871 3.02602539 39.61791992 2.77783203 38.70068359 C2.02183861 35.94436088 2.02183861 35.94436088 0.91796875 33.109375 C-0.13368776 29.54716826 -0.22702845 26.56232881 -0.1953125 22.8515625 C-0.1924826 22.19417084 -0.18965271 21.53677917 -0.18673706 20.85946655 C-0.17563447 18.78111767 -0.15054986 16.70321634 -0.125 14.625 C-0.11495731 13.20703752 -0.10583373 11.78906821 -0.09765625 10.37109375 C-0.07572805 6.91391963 -0.04126818 3.45700358 0 0 Z " fill="#012065" transform="translate(261,262)"/>
<path d="M0 0 C9.00999607 1.79558314 17.21049642 4.39342236 25.625 8.0625 C26.75019043 8.54783203 27.87538086 9.03316406 29.03466797 9.53320312 C57.49550002 21.98102331 79.60089569 38.77816535 102 60 C101.01 60.495 101.01 60.495 100 61 C99.26924352 63.3140622 98.59861742 65.64828869 98 68 C95.19675806 65.24925322 92.47680114 62.45421854 89.8359375 59.546875 C83.00313778 52.03138639 76.16694547 45.09677266 68 39 C66.99195313 38.2265625 65.98390625 37.453125 64.9453125 36.65625 C45.40177564 21.96119977 22.74052751 10.79763215 0 2 C0 1.34 0 0.68 0 0 Z " fill="#012065" transform="translate(144,183)"/>
<path d="M0 0 C1.51461994 3.29652574 1.44032028 5.72320732 1.0625 9.3125 C-0.25 12.1875 -0.25 12.1875 -1.9375 14.3125 C-6.15099906 15.71699969 -10.09644163 15.99078466 -14.3125 14.4375 C-15.9375 13.3125 -15.9375 13.3125 -16.9375 11.3125 C-17.08466542 9.50406337 -17.1585887 7.68918434 -17.1875 5.875 C-17.21328125 4.90691406 -17.2390625 3.93882812 -17.265625 2.94140625 C-16.9375 0.3125 -16.9375 0.3125 -15.5625 -1.484375 C-10.68502422 -5.09558303 -4.41623251 -3.84639606 0 0 Z " fill="#7E5E20" transform="translate(314.9375,446.6875)"/>
<path d="M0 0 C2.625 1.4375 2.625 1.4375 4 4 C4.65394231 8.19292425 4.67938902 11.70592568 2.6875 15.5 C0.15293952 17.75294265 -2.04119164 18.00457685 -5.375 18.375 C-9 18 -9 18 -11.9375 16.0625 C-14.70329942 11.95570692 -14.92531621 8.81523776 -14 4 C-11.09922324 -1.40599305 -5.44853583 -0.85981878 0 0 Z " fill="#7E5E20" transform="translate(176,690)"/>
<path d="M0 0 C2.3515625 0.40234375 2.3515625 0.40234375 4.9765625 1.77734375 C7.14198014 5.91132289 7.21388986 9.84865015 6.3515625 14.40234375 C3.67708449 17.80622485 2.12341635 18.30586202 -2.1484375 18.83984375 C-5.83142179 18.37947071 -7.75800326 17.69768859 -10.6484375 15.40234375 C-12.21523714 10.70194483 -12.39721372 7.00200204 -10.2734375 2.46484375 C-6.79350056 -0.26939242 -4.33540791 -0.26217069 0 0 Z " fill="#7E5E20" transform="translate(192.6484375,689.59765625)"/>
<path d="M0 0 C4.94429105 2.21840825 8.2970866 5.28470517 11 10 C11.8209685 14.37659664 11.66853769 18.56712294 11.4375 23 C11.40591797 24.15628906 11.37433594 25.31257813 11.34179688 26.50390625 C11.25980124 29.33861265 11.14511113 32.16794107 11 35 C8.85526389 32.85526389 7.99545242 31.1242971 6.72265625 28.38671875 C6.29146484 27.46826172 5.86027344 26.54980469 5.41601562 25.60351562 C4.96935547 24.64123047 4.52269531 23.67894531 4.0625 22.6875 C3.18078869 20.7944517 2.29674353 18.90248835 1.41015625 17.01171875 C1.01965088 16.17084717 0.62914551 15.32997559 0.22680664 14.46362305 C-0.99031085 11.91124554 -0.99031085 11.91124554 -2.71313477 9.31176758 C-3.13780029 8.54888428 -3.56246582 7.78600098 -4 7 C-3.67 6.34 -3.34 5.68 -3 5 C-2.34 5 -1.68 5 -1 5 C-0.67 3.35 -0.34 1.7 0 0 Z " fill="#012065" transform="translate(247,247)"/>
</svg>
